<mxfile host="app.diagrams.net" agent="Mozilla/5.0 (Windows NT 10.0; Win64; x64) AppleWebKit/537.36 (KHTML, like Gecko) Chrome/134.0.0.0 Safari/537.36 OPR/119.0.0.0" version="28.0.6">
  <diagram name="Page-1" id="22kgzVIvJCgU88DYwKSo">
    <mxGraphModel dx="1382" dy="790" grid="1" gridSize="10" guides="1" tooltips="1" connect="1" arrows="1" fold="1" page="1" pageScale="1" pageWidth="850" pageHeight="1100" math="0" shadow="0">
      <root>
        <mxCell id="0" />
        <mxCell id="1" parent="0" />
        <mxCell id="ctsIGF38T5XNqZwwr2aX-36" style="edgeStyle=orthogonalEdgeStyle;rounded=0;orthogonalLoop=1;jettySize=auto;html=1;" edge="1" parent="1" source="ctsIGF38T5XNqZwwr2aX-34" target="ctsIGF38T5XNqZwwr2aX-35">
          <mxGeometry relative="1" as="geometry" />
        </mxCell>
        <mxCell id="ctsIGF38T5XNqZwwr2aX-34" value="" style="ellipse;whiteSpace=wrap;html=1;aspect=fixed;" vertex="1" parent="1">
          <mxGeometry x="360" y="10" width="80" height="80" as="geometry" />
        </mxCell>
        <mxCell id="ctsIGF38T5XNqZwwr2aX-46" style="edgeStyle=orthogonalEdgeStyle;rounded=0;orthogonalLoop=1;jettySize=auto;html=1;" edge="1" parent="1" source="ctsIGF38T5XNqZwwr2aX-35" target="ctsIGF38T5XNqZwwr2aX-37">
          <mxGeometry relative="1" as="geometry" />
        </mxCell>
        <mxCell id="ctsIGF38T5XNqZwwr2aX-47" style="edgeStyle=orthogonalEdgeStyle;rounded=0;orthogonalLoop=1;jettySize=auto;html=1;" edge="1" parent="1" source="ctsIGF38T5XNqZwwr2aX-35" target="ctsIGF38T5XNqZwwr2aX-38">
          <mxGeometry relative="1" as="geometry">
            <Array as="points">
              <mxPoint x="400" y="260" />
              <mxPoint x="540" y="260" />
            </Array>
          </mxGeometry>
        </mxCell>
        <mxCell id="ctsIGF38T5XNqZwwr2aX-35" value="Screen" style="rounded=1;whiteSpace=wrap;html=1;" vertex="1" parent="1">
          <mxGeometry x="340" y="150" width="120" height="60" as="geometry" />
        </mxCell>
        <mxCell id="ctsIGF38T5XNqZwwr2aX-48" style="edgeStyle=orthogonalEdgeStyle;rounded=0;orthogonalLoop=1;jettySize=auto;html=1;" edge="1" parent="1" source="ctsIGF38T5XNqZwwr2aX-37" target="ctsIGF38T5XNqZwwr2aX-42">
          <mxGeometry relative="1" as="geometry" />
        </mxCell>
        <mxCell id="ctsIGF38T5XNqZwwr2aX-58" style="edgeStyle=orthogonalEdgeStyle;rounded=0;orthogonalLoop=1;jettySize=auto;html=1;" edge="1" parent="1" source="ctsIGF38T5XNqZwwr2aX-37" target="ctsIGF38T5XNqZwwr2aX-39">
          <mxGeometry relative="1" as="geometry">
            <Array as="points">
              <mxPoint x="280" y="400" />
              <mxPoint x="410" y="400" />
            </Array>
          </mxGeometry>
        </mxCell>
        <mxCell id="ctsIGF38T5XNqZwwr2aX-37" value="Login" style="rounded=1;whiteSpace=wrap;html=1;" vertex="1" parent="1">
          <mxGeometry x="220" y="310" width="120" height="60" as="geometry" />
        </mxCell>
        <mxCell id="ctsIGF38T5XNqZwwr2aX-59" style="edgeStyle=orthogonalEdgeStyle;rounded=0;orthogonalLoop=1;jettySize=auto;html=1;" edge="1" parent="1" source="ctsIGF38T5XNqZwwr2aX-38" target="ctsIGF38T5XNqZwwr2aX-39">
          <mxGeometry relative="1" as="geometry">
            <Array as="points">
              <mxPoint x="540" y="400" />
              <mxPoint x="410" y="400" />
            </Array>
          </mxGeometry>
        </mxCell>
        <mxCell id="ctsIGF38T5XNqZwwr2aX-38" value="Registration" style="rounded=1;whiteSpace=wrap;html=1;" vertex="1" parent="1">
          <mxGeometry x="480" y="310" width="120" height="60" as="geometry" />
        </mxCell>
        <mxCell id="ctsIGF38T5XNqZwwr2aX-62" style="edgeStyle=orthogonalEdgeStyle;rounded=0;orthogonalLoop=1;jettySize=auto;html=1;" edge="1" parent="1" source="ctsIGF38T5XNqZwwr2aX-39" target="ctsIGF38T5XNqZwwr2aX-40">
          <mxGeometry relative="1" as="geometry">
            <Array as="points">
              <mxPoint x="410" y="560" />
              <mxPoint x="280" y="560" />
            </Array>
          </mxGeometry>
        </mxCell>
        <mxCell id="ctsIGF38T5XNqZwwr2aX-63" style="edgeStyle=orthogonalEdgeStyle;rounded=0;orthogonalLoop=1;jettySize=auto;html=1;" edge="1" parent="1" source="ctsIGF38T5XNqZwwr2aX-39" target="ctsIGF38T5XNqZwwr2aX-41">
          <mxGeometry relative="1" as="geometry">
            <Array as="points">
              <mxPoint x="410" y="560" />
              <mxPoint x="530" y="560" />
            </Array>
          </mxGeometry>
        </mxCell>
        <mxCell id="ctsIGF38T5XNqZwwr2aX-39" value="Dashboard" style="rounded=1;whiteSpace=wrap;html=1;" vertex="1" parent="1">
          <mxGeometry x="350" y="440" width="120" height="60" as="geometry" />
        </mxCell>
        <mxCell id="ctsIGF38T5XNqZwwr2aX-66" style="edgeStyle=orthogonalEdgeStyle;rounded=0;orthogonalLoop=1;jettySize=auto;html=1;" edge="1" parent="1" source="ctsIGF38T5XNqZwwr2aX-40" target="ctsIGF38T5XNqZwwr2aX-43">
          <mxGeometry relative="1" as="geometry">
            <Array as="points">
              <mxPoint x="280" y="720" />
              <mxPoint x="400" y="720" />
            </Array>
          </mxGeometry>
        </mxCell>
        <mxCell id="ctsIGF38T5XNqZwwr2aX-40" value="Loan Screen" style="rounded=1;whiteSpace=wrap;html=1;" vertex="1" parent="1">
          <mxGeometry x="220" y="600" width="120" height="60" as="geometry" />
        </mxCell>
        <mxCell id="ctsIGF38T5XNqZwwr2aX-67" style="edgeStyle=orthogonalEdgeStyle;rounded=0;orthogonalLoop=1;jettySize=auto;html=1;" edge="1" parent="1" source="ctsIGF38T5XNqZwwr2aX-41" target="ctsIGF38T5XNqZwwr2aX-43">
          <mxGeometry relative="1" as="geometry">
            <Array as="points">
              <mxPoint x="530" y="720" />
              <mxPoint x="400" y="720" />
            </Array>
          </mxGeometry>
        </mxCell>
        <mxCell id="ctsIGF38T5XNqZwwr2aX-41" value="Repayment Screen" style="rounded=1;whiteSpace=wrap;html=1;" vertex="1" parent="1">
          <mxGeometry x="470" y="600" width="120" height="60" as="geometry" />
        </mxCell>
        <mxCell id="ctsIGF38T5XNqZwwr2aX-57" style="edgeStyle=orthogonalEdgeStyle;rounded=0;orthogonalLoop=1;jettySize=auto;html=1;" edge="1" parent="1" source="ctsIGF38T5XNqZwwr2aX-42" target="ctsIGF38T5XNqZwwr2aX-37">
          <mxGeometry relative="1" as="geometry">
            <Array as="points">
              <mxPoint x="100" y="260" />
              <mxPoint x="280" y="260" />
            </Array>
          </mxGeometry>
        </mxCell>
        <mxCell id="ctsIGF38T5XNqZwwr2aX-42" value="Forgot Password" style="rounded=1;whiteSpace=wrap;html=1;" vertex="1" parent="1">
          <mxGeometry x="40" y="310" width="120" height="60" as="geometry" />
        </mxCell>
        <mxCell id="ctsIGF38T5XNqZwwr2aX-43" value="Dashboard" style="rounded=1;whiteSpace=wrap;html=1;" vertex="1" parent="1">
          <mxGeometry x="340" y="790" width="120" height="60" as="geometry" />
        </mxCell>
        <mxCell id="ctsIGF38T5XNqZwwr2aX-49" style="edgeStyle=orthogonalEdgeStyle;rounded=0;orthogonalLoop=1;jettySize=auto;html=1;" edge="1" parent="1" source="ctsIGF38T5XNqZwwr2aX-37" target="ctsIGF38T5XNqZwwr2aX-37">
          <mxGeometry relative="1" as="geometry" />
        </mxCell>
        <mxCell id="ctsIGF38T5XNqZwwr2aX-52" style="edgeStyle=orthogonalEdgeStyle;rounded=0;orthogonalLoop=1;jettySize=auto;html=1;" edge="1" parent="1" source="ctsIGF38T5XNqZwwr2aX-38" target="ctsIGF38T5XNqZwwr2aX-38">
          <mxGeometry relative="1" as="geometry" />
        </mxCell>
        <mxCell id="ctsIGF38T5XNqZwwr2aX-53" value="Failed Registration" style="text;html=1;align=center;verticalAlign=middle;resizable=0;points=[];autosize=1;strokeColor=none;fillColor=none;" vertex="1" parent="1">
          <mxGeometry x="620" y="318" width="120" height="30" as="geometry" />
        </mxCell>
        <mxCell id="ctsIGF38T5XNqZwwr2aX-56" value="Failed Login" style="text;html=1;align=center;verticalAlign=middle;resizable=0;points=[];autosize=1;strokeColor=none;fillColor=none;" vertex="1" parent="1">
          <mxGeometry x="355" y="318" width="90" height="30" as="geometry" />
        </mxCell>
        <mxCell id="ctsIGF38T5XNqZwwr2aX-60" value="Registration Success" style="text;html=1;align=center;verticalAlign=middle;resizable=0;points=[];autosize=1;strokeColor=none;fillColor=none;" vertex="1" parent="1">
          <mxGeometry x="460" y="398" width="140" height="30" as="geometry" />
        </mxCell>
        <mxCell id="ctsIGF38T5XNqZwwr2aX-61" value="Login Success" style="text;html=1;align=center;verticalAlign=middle;resizable=0;points=[];autosize=1;strokeColor=none;fillColor=none;" vertex="1" parent="1">
          <mxGeometry x="250" y="398" width="100" height="30" as="geometry" />
        </mxCell>
        <mxCell id="ctsIGF38T5XNqZwwr2aX-64" value="Loan Screen Selected" style="text;html=1;align=center;verticalAlign=middle;resizable=0;points=[];autosize=1;strokeColor=none;fillColor=none;" vertex="1" parent="1">
          <mxGeometry x="245" y="535" width="140" height="30" as="geometry" />
        </mxCell>
        <mxCell id="ctsIGF38T5XNqZwwr2aX-65" value="Repayment Screen Selected" style="text;html=1;align=center;verticalAlign=middle;resizable=0;points=[];autosize=1;strokeColor=none;fillColor=none;" vertex="1" parent="1">
          <mxGeometry x="440" y="528" width="180" height="30" as="geometry" />
        </mxCell>
        <mxCell id="ctsIGF38T5XNqZwwr2aX-68" value="Back" style="text;html=1;align=center;verticalAlign=middle;resizable=0;points=[];autosize=1;strokeColor=none;fillColor=none;" vertex="1" parent="1">
          <mxGeometry x="305" y="700" width="50" height="30" as="geometry" />
        </mxCell>
        <mxCell id="ctsIGF38T5XNqZwwr2aX-69" value="Back" style="text;html=1;align=center;verticalAlign=middle;resizable=0;points=[];autosize=1;strokeColor=none;fillColor=none;" vertex="1" parent="1">
          <mxGeometry x="445" y="700" width="50" height="30" as="geometry" />
        </mxCell>
      </root>
    </mxGraphModel>
  </diagram>
</mxfile>
